<svg width="11" height="12" viewBox="0 0 11 12" fill="none" xmlns="http://www.w3.org/2000/svg">
<path d="M3.26544 12C4.05237 12 4.75405 11.787 5.41639 11.4608C6.3476 11.0014 7.12141 10.3357 7.84933 9.59672C8.64282 8.79784 9.33794 7.91242 9.9347 6.94711C10.4397 6.12827 10.82 5.26282 10.9512 4.29751C11.0889 3.30557 10.9446 2.37355 10.4003 1.51476C10.1642 1.13529 9.84289 0.842373 9.50845 0.556109C9.37729 0.449592 9.25925 0.336418 9.12809 0.229902C8.74119 -0.0829914 8.34772 -0.0829914 8.00016 0.269845C7.79686 0.469564 7.6198 0.702569 7.46242 0.942232C7.21978 1.31504 6.99026 1.70782 6.78697 2.1006C6.62958 2.40684 6.57056 2.74636 6.66237 3.09254C6.74106 3.38546 6.9378 3.58518 7.1542 3.77158C7.35749 3.94467 7.56734 4.10445 7.77719 4.27088C8.06573 4.49723 8.18377 4.79015 8.13131 5.16296C8.07229 5.54242 7.91491 5.88195 7.71161 6.2015C7.16732 7.04697 6.52466 7.8059 5.74428 8.43169C5.47541 8.64472 5.18687 8.82447 4.8393 8.88439C4.53109 8.93764 4.27534 8.83113 4.05237 8.61809C3.82941 8.40506 3.60644 8.18537 3.37692 7.97899C2.98345 7.61284 2.53752 7.56624 2.07192 7.79259C1.83584 7.90576 1.60632 8.05888 1.40303 8.22531C1.05547 8.51158 0.727576 8.81781 0.399687 9.12405C0.216069 9.3038 0.0783559 9.52349 0.0193359 9.78312C-0.0265686 10.0028 0.00622033 10.2092 0.150492 10.369C0.622652 10.8749 1.11449 11.3542 1.75059 11.6538C2.24898 11.8868 2.76705 11.9933 3.272 12H3.26544Z" fill="#1B2124"/>
</svg>
