<svg width="12" height="15" viewBox="0 0 12 15" fill="none" xmlns="http://www.w3.org/2000/svg">
<path d="M5.70319 8.7878C7.91084 8.7878 9.71375 6.98488 9.71375 4.77723C9.71375 2.56959 7.91084 0.803467 5.70319 0.803467C3.49554 0.803467 1.69263 2.60638 1.69263 4.81403C1.69263 7.02168 3.49554 8.82459 5.70319 8.82459V8.7878Z" fill="#1B2124"/>
<path d="M5.66639 12.3936C7.32212 12.3936 8.83068 11.8417 10.1185 10.9219C8.86748 10.0388 7.32212 9.48689 5.66639 9.48689C4.01065 9.48689 2.4653 10.002 1.21429 10.9219C2.50209 11.8417 4.01065 12.3936 5.66639 12.3936Z" fill="#1B2124"/>
<path d="M10.5967 11.3634C9.23533 12.4672 7.5428 13.1663 5.6663 13.1663C3.7898 13.1663 2.09727 12.504 0.735883 11.3634C0.478324 11.5841 0.220765 11.8049 0 12.0257C1.50856 13.3871 3.49544 14.1965 5.6663 14.1965C7.83715 14.1965 9.82404 13.3871 11.3326 12.0257C11.1118 11.7681 10.8543 11.5841 10.5967 11.3634Z" fill="#1B2124"/>
</svg>
