<svg width="18" height="20" viewBox="0 0 18 20" fill="none" xmlns="http://www.w3.org/2000/svg">
<path d="M17.5119 18.12H4.4553C6.2094 17.3922 7.72188 16.2084 8.81396 14.6884L17.2558 2.9242C17.4346 2.68007 17.367 2.34382 17.106 2.17339L13.9216 0.0960076C13.6655 -0.0744208 13.3128 -0.00993438 13.134 0.238799L4.69208 12.003C3.44054 13.7441 2.82201 15.8215 2.91866 17.9173C2.91866 17.991 2.94282 18.0601 2.97664 18.12H0.488054C0.21745 18.12 0 18.3272 0 18.5852V19.5341C0 19.792 0.21745 19.9993 0.488054 19.9993H17.5119C17.7826 19.9993 18 19.792 18 19.5341V18.5852C18 18.3272 17.7826 18.12 17.5119 18.12Z" fill="#1B2124"/>
</svg>
