<svg width="150" height="150" viewBox="0 0 150 150" fill="none" xmlns="http://www.w3.org/2000/svg">
<path d="M74.6212 132.961C106.444 132.961 132.242 107.163 132.242 75.3394C132.242 43.5161 106.444 17.7183 74.6212 17.7183C42.7979 17.7183 17 43.5161 17 75.3394C17 107.163 42.7979 132.961 74.6212 132.961Z" fill="#FABA22"/>
<path d="M44.2724 49.6958H33.4668V108.454H44.2724V49.6958Z" fill="#1B2124"/>
<path d="M128.313 123.189V112.384H20.8774V123.189H128.313Z" fill="#1B2124"/>
<path d="M68.1067 49.6958H57.3011V108.454H68.1067V49.6958Z" fill="#1B2124"/>
<path d="M91.9411 49.6958H81.1355V108.454H91.9411V49.6958Z" fill="#1B2124"/>
<path d="M115.775 49.6958H104.97V108.454H115.775V49.6958Z" fill="#1B2124"/>
<path d="M74.6213 26.4302L20.9036 40.0793V45.7923H74.6213H128.339V40.0793L74.6213 26.4302Z" fill="#1B2124"/>
</svg>
