<svg width="150" height="150" viewBox="0 0 150 150" fill="none" xmlns="http://www.w3.org/2000/svg">
<path d="M74.6212 129.961C106.444 129.961 132.242 104.163 132.242 72.3394C132.242 40.5161 106.444 14.7183 74.6212 14.7183C42.7979 14.7183 17 40.5161 17 72.3394C17 104.163 42.7979 129.961 74.6212 129.961Z" fill="#FABA22"/>
<path d="M57.8183 99.5598C57.689 100.128 57.6115 100.723 57.6115 101.318C57.6115 107.729 65.2374 112.925 74.647 112.925C84.0567 112.925 91.6826 107.729 91.6826 101.318C91.6826 100.826 91.6309 100.335 91.5275 99.8441C85.4785 96.9488 79.2226 95.2686 74.3885 95.2686C69.5544 95.2686 63.7122 96.8454 57.8441 99.5598H57.8183Z" fill="#1B2124"/>
<path d="M97.3439 103.075C96.1806 111.89 86.4608 118.767 74.6212 118.767C62.7816 118.767 52.8291 111.709 51.8726 102.739C43.0575 108.194 35.7935 116.207 35.7935 125.333C35.7935 133.295 57.3012 135.285 74.3368 135.285C91.3724 135.285 112.88 133.295 112.88 125.333C112.88 116.388 105.9 108.53 97.3439 103.075Z" fill="#1B2124"/>
<path d="M88.9165 40.7762C87.107 42.1204 83.9532 43.8783 79.0416 44.3694C79.0416 44.3694 84.1342 42.9218 86.409 38.6564C87.5465 36.5367 88.1927 33.7707 87.1328 29.8931C87.1328 29.8931 82.9967 34.1584 70.3816 35.7612H70.4074C55.9569 37.7258 54.2766 50.3927 54.2766 60.2676C54.2766 70.9956 62.8073 88.8843 74.3626 88.8843C85.9178 88.8843 94.4486 70.9956 94.4486 60.2676C94.4486 53.6757 93.6989 45.8171 88.9165 40.7762Z" fill="#1B2124"/>
</svg>
