<svg width="185" height="44" viewBox="0 0 185 44" fill="none" xmlns="http://www.w3.org/2000/svg">
<path d="M7.90677 7.34277H0V36.7112H7.90677V7.34277Z" fill="#1B2124"/>
<path d="M19.7521 7.34277H11.8454V36.7112H19.7521V7.34277Z" fill="#1B2124"/>
<path d="M31.5975 0H23.6907V44H31.5975V0Z" fill="white"/>
<path d="M43.4428 7.34277H35.5361V36.7112H43.4428V7.34277Z" fill="#1B2124"/>
<path d="M72.1955 12.6342C71.4534 12.0262 70.3795 11.7181 68.997 11.7181H66.2874V9.97494H72.5506V7.35889H63.1937V19.0906H68.639C70.103 19.0906 71.2584 18.7555 72.0762 18.0961C72.9057 17.4285 73.3277 16.4881 73.3277 15.2989C73.3277 14.1098 72.9464 13.2477 72.1955 12.6315V12.6342ZM70.1874 15.3638C70.1874 15.78 70.0564 16.0854 69.7857 16.2935C69.5005 16.5097 69.0698 16.6205 68.5022 16.6205H66.2903V14.1747H68.5022C70.0127 14.1747 70.1874 14.8557 70.1874 15.3665V15.3638Z" fill="#1B2124"/>
<path d="M78.0192 16.6964H82.6351L83.5985 19.0909H86.8843L81.8639 7.53211L81.7882 7.35645H78.9011L73.9883 18.7071L73.8253 19.0882H77.0471L78.0134 16.6937L78.0192 16.6964ZM79.0379 14.1776L80.333 10.9697L81.6223 14.1776H79.0349H79.0379Z" fill="#1B2124"/>
<path d="M95.6475 19.0906H98.7558V7.35889H95.6475V11.7667H91.3139V7.35889H88.2056V19.0906H91.3139V14.5098H95.6475V19.0906Z" fill="#1B2124"/>
<path d="M104.556 14.5882H105.814L108.642 19.0906H112.19L108.36 13.0369L112.091 7.35889H108.739L105.892 11.8775H104.556V7.35889H101.463V19.0906H104.556V14.5882Z" fill="#1B2124"/>
<path d="M120.808 7.87507C120.066 7.53185 119.175 7.35889 118.165 7.35889H113.168V19.0906H116.277V16.0097H118.163C119.175 16.0097 120.063 15.8367 120.805 15.4935C121.556 15.1476 122.147 14.6422 122.56 13.9882C122.971 13.3396 123.177 12.5667 123.177 11.6938C123.177 10.8208 122.971 10.029 122.56 9.38038C122.147 8.72907 121.556 8.221 120.805 7.87507H120.808ZM116.277 10.0236H118.026C118.718 10.0236 119.231 10.1695 119.554 10.456C119.874 10.7425 120.037 11.1587 120.037 11.6938C120.037 12.2289 119.874 12.6288 119.554 12.9153C119.234 13.2018 118.718 13.3477 118.026 13.3477H116.277V10.0236Z" fill="#1B2124"/>
<path d="M134.95 8.89688C134.391 8.35096 133.727 7.92126 132.976 7.61858C132.223 7.3186 131.387 7.16455 130.494 7.16455C129.6 7.16455 128.78 7.31589 128.02 7.61858C127.263 7.91856 126.594 8.34826 126.029 8.89417C125.468 9.44009 125.028 10.0887 124.72 10.8211C124.411 11.5508 124.254 12.3588 124.254 13.2209C124.254 14.083 124.411 14.8911 124.717 15.6208C125.022 16.3505 125.459 16.9991 126.018 17.545C126.573 18.0909 127.243 18.5233 128.011 18.8233C128.774 19.1233 129.615 19.2773 130.508 19.2773C131.402 19.2773 132.22 19.126 132.976 18.8233C133.727 18.5233 134.391 18.0963 134.95 17.5558C135.508 17.0099 135.948 16.364 136.259 15.6289C136.571 14.8884 136.731 14.0776 136.731 13.2182C136.731 12.3588 136.574 11.5373 136.259 10.8076C135.945 10.0806 135.506 9.43738 134.95 8.89147V8.89688ZM133.59 13.2236C133.59 13.7209 133.512 14.1776 133.352 14.583C133.195 14.983 132.971 15.3343 132.688 15.6262C132.409 15.9127 132.08 16.137 131.707 16.2937C130.971 16.6018 130.011 16.6018 129.263 16.2937C128.89 16.1424 128.561 15.9181 128.288 15.6316C128.011 15.3397 127.79 14.9857 127.633 14.5803C127.476 14.1695 127.394 13.7155 127.394 13.229C127.394 12.7426 127.473 12.275 127.633 11.8697C127.793 11.467 128.014 11.1157 128.296 10.8265C128.576 10.5373 128.905 10.313 129.271 10.159C129.641 10.0049 130.051 9.92654 130.491 9.92654C130.93 9.92654 131.347 10.0049 131.719 10.159C132.092 10.313 132.418 10.5373 132.694 10.8238C132.971 11.1103 133.192 11.4616 133.352 11.867C133.509 12.2723 133.59 12.7291 133.59 13.2263V13.2236Z" fill="#1B2124"/>
<path d="M137.418 10.0209H140.875V19.0906H143.957V10.0209H147.43V7.35889H137.418V10.0209Z" fill="#1B2124"/>
<path d="M152.108 14.1509H156.442V18.7317H159.55V7H156.442V11.4078H152.108V7H149V18.7317H152.108V14.1509Z" fill="#1B2124"/>
<path d="M172.255 8.8971C171.696 8.35119 171.033 7.92149 170.282 7.62151C169.531 7.31882 168.696 7.16748 167.799 7.16748C166.903 7.16748 166.082 7.31882 165.326 7.62151C164.569 7.92149 163.9 8.35119 163.335 8.89981C162.77 9.44842 162.328 10.097 162.025 10.8267C161.72 11.5591 161.562 12.3645 161.562 13.2266C161.562 14.0887 161.717 14.894 162.025 15.6264C162.331 16.3561 162.767 17.0047 163.326 17.5506C163.885 18.0992 164.554 18.5289 165.317 18.8289C166.082 19.1289 166.92 19.283 167.814 19.283C168.707 19.283 169.525 19.1316 170.279 18.8289C171.03 18.5289 171.694 18.1019 172.252 17.5614C172.814 17.0155 173.254 16.3669 173.562 15.6345C173.876 14.8967 174.034 14.086 174.034 13.2239C174.034 12.3618 173.873 11.5402 173.562 10.8132C173.251 10.0862 172.811 9.44031 172.252 8.8971H172.255ZM166.571 16.2912C166.202 16.1399 165.873 15.9156 165.596 15.6264C165.317 15.3318 165.096 14.9778 164.941 14.5751C164.784 14.1643 164.703 13.7103 164.703 13.2239C164.703 12.7374 164.781 12.2699 164.941 11.8645C165.099 11.4645 165.32 11.1132 165.605 10.8213C165.887 10.5321 166.216 10.3051 166.583 10.1538C166.953 9.99974 167.363 9.92136 167.802 9.92136C168.242 9.92136 168.655 9.99974 169.031 10.1538C169.4 10.3051 169.729 10.5294 170.006 10.8186C170.285 11.1105 170.503 11.4618 170.66 11.8618C170.818 12.2672 170.899 12.7239 170.899 13.2212C170.899 13.7184 170.82 14.1752 170.66 14.5805C170.503 14.9805 170.279 15.3318 169.997 15.6237C169.714 15.9129 169.386 16.1399 169.019 16.2912C168.283 16.5993 167.322 16.5993 166.574 16.2912H166.571Z" fill="#1B2124"/>
<path d="M179.092 16.461V14.4287H184.129V11.8613H179.092V9.98845H184.798V7.35889H175.998V19.0906H184.999V16.461H179.092Z" fill="#1B2124"/>
<path d="M72.1955 30.3198C71.4534 29.7117 70.3795 29.4036 68.997 29.4036H66.2874V27.6578H72.5506V25.0444H63.1937V36.7761H68.639C70.103 36.7761 71.2584 36.441 72.0762 35.7816C72.9057 35.1141 73.3277 34.1736 73.3277 32.9845C73.3277 31.7954 72.9464 30.9333 72.1955 30.3198ZM70.1874 33.0493C70.1874 33.4601 70.0535 33.7736 69.7857 33.9763C69.5034 34.1925 69.0698 34.3033 68.5022 34.3033H66.2903V31.8575H68.5022C70.0127 31.8575 70.1874 32.5386 70.1874 33.0493Z" fill="#1B2124"/>
<path d="M89.4601 26.5797C88.9246 26.0365 88.2755 25.6095 87.5392 25.3068C86.8029 25.0041 85.9938 24.8501 85.1381 24.8501C84.2825 24.8501 83.4617 25.0041 82.7283 25.3068C81.9949 25.6095 81.3517 26.0365 80.8104 26.577C80.269 27.1175 79.8441 27.7634 79.5472 28.4958C79.4279 28.7931 79.329 29.1066 79.2562 29.4336H78.3482V25.042H75.2544V36.7737H78.3482V32.2226H79.2242C79.2999 32.5983 79.4075 32.9658 79.5443 33.3117C79.8412 34.0495 80.2661 34.6981 80.8074 35.2387C81.3488 35.7792 81.9949 36.2062 82.7254 36.5088C83.4559 36.8115 84.265 36.9629 85.1323 36.9629C85.9996 36.9629 86.7971 36.8088 87.5334 36.5088C88.2726 36.2062 88.9187 35.7792 89.4543 35.2387C89.9898 34.6981 90.4147 34.0495 90.7145 33.3117C91.0172 32.5767 91.1685 31.7659 91.1685 30.9065C91.1685 30.0471 91.0172 29.2363 90.7145 28.5012C90.4147 27.7634 89.9898 27.1148 89.4543 26.577L89.4601 26.5797ZM88.034 30.9092C88.034 31.4173 87.9554 31.8821 87.8012 32.2875C87.6498 32.6875 87.4403 33.0388 87.1754 33.3253C86.9135 33.609 86.6079 33.8279 86.2645 33.982C85.5892 34.2847 84.7074 34.2847 84.0176 33.982C83.6713 33.8306 83.3628 33.609 83.1008 33.328C82.836 33.0415 82.6265 32.6902 82.4722 32.2902C82.3179 31.8848 82.2394 31.4227 82.2394 30.9119C82.2394 30.4011 82.3179 29.939 82.4722 29.5336C82.6235 29.1336 82.836 28.7823 83.0979 28.4958C83.3599 28.2121 83.6684 27.9931 84.0147 27.8391C84.3611 27.6878 84.7365 27.6094 85.1352 27.6094C85.5339 27.6094 85.921 27.6851 86.2616 27.8391C86.605 27.9904 86.9106 28.2121 87.1725 28.4931C87.4374 28.7823 87.6469 29.1309 87.7982 29.5309C87.9525 29.9363 88.0311 30.3984 88.0311 30.9092H88.034Z" fill="#1B2124"/>
<path d="M100.793 25.5606C100.054 25.2174 99.1634 25.0444 98.1476 25.0444H93.1505V36.7761H96.2588V33.6953H98.1447C99.1546 33.6953 100.045 33.5223 100.79 33.1791C101.541 32.8331 102.132 32.3251 102.545 31.6738C102.953 31.0278 103.159 30.2549 103.159 29.3793C103.159 28.5037 102.953 27.7145 102.545 27.0686C102.135 26.42 101.544 25.9119 100.793 25.5633V25.5606ZM96.2588 27.7064H98.0079C98.7006 27.7064 99.2157 27.8524 99.5388 28.1415C99.8619 28.428 100.019 28.8334 100.019 29.3766C100.019 29.9198 99.856 30.3144 99.5388 30.5981C99.2157 30.8846 98.7006 31.0306 98.0108 31.0306H96.2617V27.7064H96.2588Z" fill="#1B2124"/>
<path d="M114.932 26.5849C114.376 26.039 113.709 25.6092 112.956 25.3066C112.205 25.0039 111.369 24.8525 110.473 24.8525C109.577 24.8525 108.756 25.0066 107.999 25.3066C107.24 25.6092 106.57 26.039 106.009 26.5822C105.447 27.1254 105.007 27.774 104.699 28.5091C104.39 29.2442 104.236 30.0522 104.236 30.9116C104.236 31.771 104.393 32.5791 104.699 33.3115C105.004 34.0439 105.441 34.6898 106 35.2384C106.556 35.7843 107.225 36.214 107.991 36.5167C108.75 36.8167 109.591 36.9707 110.488 36.9707C111.384 36.9707 112.205 36.8194 112.953 36.5167C113.707 36.214 114.37 35.7897 114.926 35.2492C115.482 34.7114 115.924 34.0628 116.239 33.3223C116.55 32.5818 116.71 31.771 116.71 30.9143C116.71 30.0576 116.553 29.2334 116.239 28.5037C115.927 27.7821 115.488 27.1362 114.929 26.5876L114.932 26.5849ZM113.57 30.9116C113.57 31.4089 113.491 31.8656 113.331 32.2683C113.174 32.671 112.95 33.0223 112.668 33.3115C112.391 33.5979 112.062 33.8223 111.69 33.979C110.953 34.2871 109.993 34.2871 109.242 33.979C108.867 33.825 108.546 33.6061 108.267 33.3142C107.988 33.0223 107.766 32.6683 107.612 32.2629C107.455 31.8521 107.374 31.3981 107.374 30.9116C107.374 30.4252 107.452 29.9576 107.612 29.5522C107.769 29.1523 107.991 28.8009 108.276 28.5091C108.552 28.2226 108.881 27.9983 109.254 27.8415C109.62 27.6875 110.031 27.6091 110.473 27.6091C110.915 27.6091 111.329 27.6875 111.701 27.8415C112.074 27.9956 112.4 28.2172 112.676 28.5064C112.953 28.7955 113.174 29.1496 113.331 29.5522C113.488 29.9576 113.57 30.4144 113.57 30.9116Z" fill="#1B2124"/>
<path d="M123.681 36.7761H126.777V27.7064H131.079V36.7761H134.173V25.0444H123.681V36.7761Z" fill="#1B2124"/>
<path d="M144.534 25.5606C143.794 25.2174 142.904 25.0444 141.888 25.0444H136.891V36.7761H139.999V33.6953H141.885C142.898 33.6953 143.786 33.5223 144.528 33.1791C145.282 32.8331 145.872 32.3251 146.283 31.6738C146.69 31.0251 146.897 30.2522 146.897 29.3793C146.897 28.5064 146.69 27.7172 146.283 27.0686C145.872 26.4173 145.282 25.9119 144.531 25.5633L144.534 25.5606ZM143.759 29.3766C143.759 29.9009 143.596 30.3117 143.276 30.5981C142.953 30.8846 142.438 31.0306 141.745 31.0306H139.999V27.7064H141.745C142.438 27.7064 142.953 27.8524 143.276 28.1388C143.596 28.4253 143.759 28.8415 143.759 29.3766Z" fill="#1B2124"/>
<path d="M158.672 26.5849C158.114 26.0363 157.45 25.6065 156.699 25.3066C155.948 25.0039 155.113 24.8525 154.217 24.8525C153.32 24.8525 152.499 25.0066 151.743 25.3066C150.986 25.6065 150.317 26.0363 149.752 26.5822C149.19 27.1254 148.748 27.774 148.442 28.5091C148.137 29.2442 147.98 30.0495 147.98 30.9089C147.98 31.7683 148.134 32.5764 148.442 33.3088C148.751 34.0439 149.187 34.6925 149.743 35.2357C150.302 35.7816 150.971 36.2113 151.734 36.514C152.494 36.814 153.335 36.968 154.231 36.968C155.128 36.968 155.948 36.8167 156.696 36.514C157.447 36.214 158.111 35.787 158.669 35.2465C159.225 34.7087 159.668 34.0601 159.979 33.3196C160.293 32.5818 160.451 31.771 160.451 30.9116C160.451 30.0522 160.291 29.2279 159.979 28.501C159.668 27.774 159.228 27.1281 158.669 26.5849H158.672ZM152.988 33.979C152.616 33.825 152.29 33.6034 152.013 33.3142C151.734 33.0223 151.513 32.6683 151.359 32.2629C151.201 31.8521 151.12 31.3981 151.12 30.9116C151.12 30.4252 151.198 29.9576 151.359 29.5522C151.516 29.1523 151.737 28.8009 152.022 28.5091C152.299 28.2226 152.627 27.9983 153 27.8415C153.367 27.6875 153.777 27.6091 154.217 27.6091C154.656 27.6091 155.072 27.6875 155.445 27.8415C155.817 27.9956 156.143 28.2199 156.42 28.5064C156.696 28.7955 156.917 29.1496 157.075 29.5522C157.232 29.9576 157.313 30.4144 157.313 30.9116C157.313 31.4089 157.235 31.8629 157.075 32.2683C156.917 32.671 156.693 33.0223 156.411 33.3115C156.135 33.5979 155.806 33.8223 155.433 33.979C154.697 34.2871 153.736 34.2871 152.988 33.979Z" fill="#1B2124"/>
</svg>
