<svg width="35" height="35" viewBox="0 0 35 35" fill="none" xmlns="http://www.w3.org/2000/svg">
<path d="M26.1876 0H8.81243C3.94356 0 0 3.94356 0 8.81242V26.1876C0 31.0564 3.94356 35 8.81243 35H26.1876C31.0564 35 35 31.0564 35 26.1876V8.81242C35 3.94356 31.0564 0 26.1876 0ZM26.0407 11.0082C25.9893 11.7132 25.5854 14.1953 25.1815 16.8758C24.572 20.6725 23.9184 24.8217 23.9184 24.8217C23.9184 24.8217 23.8156 25.9893 22.9564 26.1876C22.0971 26.3932 20.6798 25.4826 20.4228 25.277C20.2172 25.1227 16.6261 22.8462 15.3116 21.7373C14.9591 21.4362 14.5552 20.8267 15.363 20.1143C17.1842 18.4473 19.3579 16.3691 20.6798 15.0546C21.2893 14.445 21.8915 13.0277 19.3653 14.7535C15.7742 17.2356 12.2272 19.5636 12.2272 19.5636C12.2272 19.5636 11.4194 20.0703 9.89928 19.615C8.37913 19.1597 6.60932 18.5501 6.60932 18.5501C6.60932 18.5501 5.3976 17.7937 7.46852 16.9786C7.46852 16.9786 16.2222 13.3875 19.2625 12.1171C20.4301 11.6104 24.3737 9.99475 24.3737 9.99475C24.3737 9.99475 26.1949 9.28976 26.0407 11.0082Z" fill="#1B2124"/>
</svg>
