<svg width="35" height="35" viewBox="0 0 35 35" fill="none" xmlns="http://www.w3.org/2000/svg">
<path d="M26.1876 0H8.81242C3.94356 0 0 3.94356 0 8.81242V26.1876C0 31.0564 3.94356 35 8.81242 35H26.1876C31.0564 35 35 31.0564 35 26.1876V8.81242C35 3.94356 31.0564 0 26.1876 0ZM17.5881 26.261C16.112 26.261 14.6507 25.8865 13.3435 25.1815L8.4893 26.4813L9.78179 21.6492C9.04742 20.3273 8.66554 18.8439 8.66554 17.3384C8.66554 12.4182 12.6679 8.41586 17.5881 8.41586C22.5084 8.41586 26.5107 12.4182 26.5107 17.3384C26.5107 22.2587 22.5084 26.261 17.5881 26.261Z" fill="#1B2124"/>
<path d="M17.588 10.0977C13.6003 10.0977 10.3544 13.3436 10.3544 17.3312C10.3544 18.6457 10.7216 19.9455 11.4119 21.0838L11.6029 21.3922L10.8832 24.0874L13.6003 23.3604L13.9088 23.5439C15.0324 24.2122 16.3102 24.5647 17.6027 24.5647C21.5903 24.5647 24.8362 21.3188 24.8362 17.3312C24.8362 13.3436 21.5903 10.0977 17.6027 10.0977H17.588ZM21.84 20.0704C21.5682 20.724 20.9 21.1426 20.2243 21.2747C19.5781 21.3996 19.042 21.194 18.4398 20.9957C17.9037 20.8194 17.3897 20.5624 16.905 20.2687C15.943 19.6812 15.1131 18.8954 14.4522 17.9848C14.2466 17.7057 14.063 17.4193 13.8867 17.1256C13.6591 16.729 13.4535 16.3178 13.3433 15.8771C13.2992 15.6935 13.2772 15.5026 13.2699 15.3117C13.2625 14.6434 13.5196 13.9604 14.0483 13.5272C14.3567 13.2775 14.812 13.1673 15.1572 13.3656C15.5317 13.5786 15.73 14.1147 15.8989 14.4892C16.0384 14.7829 16.1927 15.1648 16.1339 15.4953C16.0752 15.8257 15.8181 16.1048 15.6125 16.3471C15.473 16.5087 15.4509 16.6556 15.5684 16.8318C16.2588 17.9774 17.2134 18.8073 18.4545 19.3066C18.6234 19.3727 18.7556 19.3507 18.8658 19.2185C19.0787 18.9541 19.2917 18.4327 19.6222 18.3006C20.0554 18.1243 20.5328 18.3666 20.9 18.587C21.2451 18.7926 21.8106 19.0423 21.9061 19.4682C21.9501 19.6738 21.906 19.8868 21.8326 20.0851L21.84 20.0704Z" fill="#1B2124"/>
</svg>
