<svg width="23" height="24" viewBox="0 0 23 24" fill="none" xmlns="http://www.w3.org/2000/svg">
<path d="M8.80158 1C4.49225 1 1 4.49225 1 8.80158C1 14.7625 5.48961 20.0605 8.80158 22C12.1135 20.0605 16.6032 14.7625 16.6032 8.80158C16.6061 4.49225 13.1109 1 8.80158 1ZM8.80158 12.3898C6.82138 12.3898 5.21628 10.7847 5.21628 8.80449C5.21628 6.82429 6.82138 5.21919 8.80158 5.21919C10.7818 5.21919 12.3869 6.82429 12.3869 8.80449C12.3869 10.7847 10.7818 12.3898 8.80158 12.3898Z" stroke="#1B2124" stroke-width="2" stroke-miterlimit="10"/>
<path d="M14.495 16.0275C15.0736 16.5712 15.6552 17.0103 16.1931 17.3272C18.5368 15.9548 21.715 12.2066 21.715 7.98745C21.715 4.93719 19.2434 2.46558 16.1931 2.46558C15.3935 2.46558 14.6346 2.63423 13.9483 2.93954" stroke="#1B2124" stroke-width="2" stroke-miterlimit="10"/>
</svg>
