<svg width="95" height="95" viewBox="0 0 95 95" fill="none" xmlns="http://www.w3.org/2000/svg">
<path d="M70.4063 19.2002L57.496 32.5651L62.8828 19.7457C64.8149 14.1997 62.4737 8.38092 57.6551 6.72166L49.4952 2.88038C47.4495 2.17576 52.0636 6.83531 51.0862 9.10826L36.9485 42.6115C36.0393 44.7708 35.8575 47.1574 36.4485 49.294L37.2213 79.6606C38.5168 84.3883 51.4726 89.5479 55.8594 87.6614L80.6119 77.024C84.885 75.1829 87.8171 70.5461 87.8171 65.6138L87.908 30.4058C87.908 24.928 75.0886 17.1318 70.3609 19.1774L70.4063 19.2002Z" fill="#B58410"/>
<path d="M69.7018 19.45L48.7225 28.4736L54.1094 15.6542C56.0414 10.1082 53.7003 4.28943 48.8816 2.63018L47.6542 2.19832C45.6086 1.49371 43.2902 2.7211 42.3128 5.01678L28.1751 38.52C27.2659 40.6793 27.0841 43.0659 27.675 45.2025L36.7895 78.433C38.0851 83.1607 42.6992 85.4564 47.086 83.5699L71.8384 72.9325C76.1116 71.0914 79.0437 66.4546 79.0437 61.5223L79.1346 26.3143C79.1346 20.8365 74.4068 17.3816 69.6791 19.4045L69.7018 19.45Z" fill="#FABA22"/>
<path d="M19.4014 41.0882L10.6051 44.8613C8.67312 45.6796 7.58211 48.0435 8.15034 50.1118L19.4469 91.2749C20.0151 93.3433 22.0381 94.3661 23.9701 93.5252L32.7664 89.7521C34.6984 88.9338 35.7894 86.5699 35.2212 84.5016L23.9246 43.3385C23.3564 41.2701 21.3334 40.2472 19.4014 41.0882Z" fill="#1B2124"/>
</svg>
