<svg width="150" height="150" viewBox="0 0 150 150" fill="none" xmlns="http://www.w3.org/2000/svg">
<g clip-path="url(#clip0_687_2)">
<path d="M77.6212 127.961C109.444 127.961 135.242 102.163 135.242 70.3394C135.242 38.5161 109.444 12.7183 77.6212 12.7183C45.7979 12.7183 20 38.5161 20 70.3394C20 102.163 45.7979 127.961 77.6212 127.961Z" fill="#FABA22"/>
<path d="M90.0812 29.4438H77.6212H65.1612L45.5405 118.138L77.6212 150.658L109.728 118.138L90.0812 29.4438Z" fill="#1B2124"/>
<path d="M77.6211 0H55.4929L65.1094 18.5349H77.6211H90.1587L99.7751 0H77.6211Z" fill="#1B2124"/>
<path d="M92.6144 38.4399L58.6725 56.3544L61.4385 43.8944L90.4171 28.5908L92.6144 38.4399Z" fill="#FABA22"/>
<path d="M97.9396 62.5849L51.9254 86.8846L54.6656 74.4246L95.7682 52.7358L97.9396 62.5849Z" fill="#FABA22"/>
<path d="M103.291 86.7549L45.1526 117.44L47.9186 104.954L101.119 76.9058L103.291 86.7549Z" fill="#FABA22"/>
<path d="M108.642 110.899L62.4466 135.277L55.286 128.013L106.47 101.05L108.642 110.899Z" fill="#FABA22"/>
</g>
<defs>
<clipPath id="clip0_687_2">
<rect width="150" height="150" fill="white"/>
</clipPath>
</defs>
</svg>
