<svg width="95" height="95" viewBox="0 0 95 95" fill="none" xmlns="http://www.w3.org/2000/svg">
<g clip-path="url(#clip0_758_9)">
<path d="M68.6963 81.5553L62.2705 76.0303L88.5741 -0.160156L94.9998 5.37987L68.6963 81.5553Z" fill="#B58410"/>
<path d="M88.5745 -0.160156L46.5068 9.11337L20.2183 85.3339L62.2709 76.0604L88.5745 -0.160156Z" fill="#FABA22"/>
<path d="M77.0284 17.9956L78.6349 13.3438L47.8423 20.1483L46.2358 24.7851L77.0284 17.9956Z" fill="#1B2124"/>
<path d="M73.4105 28.2325L75.0169 23.5957L44.2244 30.3853L42.6179 35.0371L73.4105 28.2325Z" fill="#1B2124"/>
<path d="M69.7923 38.4848L71.3988 33.833L40.6062 40.6226L38.9998 45.2744L69.7923 38.4848Z" fill="#1B2124"/>
<path d="M66.1739 48.7212L67.7804 44.0693L36.9878 50.8589L35.3813 55.5107L66.1739 48.7212Z" fill="#1B2124"/>
<path d="M62.556 58.9585L64.1625 54.3218L33.3699 61.1113L31.7634 65.7481L62.556 58.9585Z" fill="#1B2124"/>
<path d="M62.2709 76.0601L68.6967 81.5549L25.6832 90.0155L20.2183 85.3336L62.2709 76.0601Z" fill="#B58410"/>
<path d="M0.670738 31.2134C-0.0348942 31.7102 -0.215056 32.6887 0.280388 33.3963L23.9866 67.3591C27.4998 72.3873 32.5293 76.1208 38.3095 78.0327C39.3154 78.3639 40.3513 77.6262 40.3813 76.5724C40.5765 70.4753 38.8049 64.4536 35.2918 59.4254L11.6005 25.4626C11.1051 24.755 10.1292 24.5744 9.42358 25.0712L0.670738 31.2134Z" fill="#1B2124"/>
</g>
<defs>
<clipPath id="clip0_758_9">
<rect width="95" height="95" fill="white"/>
</clipPath>
</defs>
</svg>
