<svg width="14" height="11" viewBox="0 0 14 11" fill="none" xmlns="http://www.w3.org/2000/svg">
<path d="M13.3326 4.40673C13.3326 1.98471 10.4076 0 6.83258 0C3.25758 0 0.332581 1.98471 0.332581 4.40673C0.332581 6.52599 2.53536 8.30887 5.49647 8.71254L4.9548 11L10.9131 7.83792H10.877C12.3576 7.03058 13.3326 5.81957 13.3326 4.40673ZM4.08814 5.04587C3.6548 5.04587 3.29369 4.70948 3.29369 4.30581C3.29369 3.90214 3.6548 3.56575 4.08814 3.56575C4.52147 3.56575 4.88258 3.90214 4.88258 4.30581C4.88258 4.70948 4.52147 5.04587 4.08814 5.04587ZM6.76036 5.04587C6.32702 5.04587 5.96591 4.70948 5.96591 4.30581C5.96591 3.90214 6.32702 3.56575 6.76036 3.56575C7.19369 3.56575 7.5548 3.90214 7.5548 4.30581C7.5548 4.70948 7.19369 5.04587 6.76036 5.04587ZM9.43258 5.04587C8.99925 5.04587 8.63814 4.70948 8.63814 4.30581C8.63814 3.90214 8.99925 3.56575 9.43258 3.56575C9.86591 3.56575 10.227 3.90214 10.227 4.30581C10.227 4.70948 9.86591 5.04587 9.43258 5.04587Z" fill="#1B2124"/>
</svg>
