<svg width="95" height="95" viewBox="0 0 95 95" fill="none" xmlns="http://www.w3.org/2000/svg">
<g clip-path="url(#clip0_758_9)">
<path d="M53.0615 6H43.13V8.05751C30.2434 13.5316 20.9316 29.3877 20.9316 48.0752C20.9316 66.7626 30.2578 82.6187 43.1444 88.0928V90.1503H53.0759C70.8202 90.1503 85.2058 71.3118 85.2058 48.0752C85.2058 24.8385 70.8202 6 53.0615 6Z" fill="#B58410"/>
<path d="M43.1299 90.1503C60.8747 90.1503 75.2598 71.3126 75.2598 48.0752C75.2598 24.8377 60.8747 6 43.1299 6C25.385 6 11 24.8377 11 48.0752C11 71.3126 25.385 90.1503 43.1299 90.1503Z" fill="#FABA22"/>
<path d="M19.5044 48.0751C19.5044 29.3877 30.6613 14.1545 44.7298 13.0786C44.1965 13.0408 43.6775 12.9653 43.1442 12.9653C28.3261 12.9653 16.3188 28.6892 16.3188 48.0751C16.3188 67.4611 28.3261 83.185 43.1298 83.185C43.6631 83.185 44.1965 83.1283 44.7154 83.0717C30.6468 81.9958 19.49 66.7438 19.49 48.0563L19.5044 48.0751Z" fill="#B58410"/>
<path d="M33.4056 26.2587L33.392 26.2651C32.2098 26.8277 31.5997 28.5387 32.0293 30.0868L40.4426 60.4066C40.8722 61.9547 42.1788 62.7537 43.361 62.1911L43.3745 62.1847C44.5567 61.6221 45.1668 59.9111 44.7373 58.363L36.3239 28.0432C35.8944 26.4951 34.5878 25.6961 33.4056 26.2587Z" fill="#1B2124"/>
<path d="M41.1264 61.6092C40.0165 60.1557 40.0165 57.7962 41.1264 56.3239L55.0364 39.4485C56.1463 37.995 57.9481 37.995 59.0724 39.4485C60.1823 40.902 60.1823 43.2615 59.0724 44.7339L45.1624 61.6092C44.0525 63.0627 42.2507 63.0627 41.1264 61.6092Z" fill="#1B2124"/>
</g>
<defs>
<clipPath id="clip0_758_9">
<rect width="74.2058" height="84.1692" fill="white" transform="translate(11 6)"/>
</clipPath>
</defs>
</svg>
