<svg width="22" height="22" viewBox="0 0 22 22" fill="none" xmlns="http://www.w3.org/2000/svg">
<path d="M11 0C4.92459 0 0 4.92459 0 11C0 17.0754 4.92459 22 11 22C17.0754 22 22 17.0754 22 11C22 4.92459 17.0754 0 11 0ZM12.0106 18.051C11.7302 18.3139 11.3447 18.4424 10.8481 18.4424C10.3516 18.4424 9.96017 18.3139 9.67392 18.051C9.38768 17.7881 9.24748 17.4727 9.24748 17.0871C9.24748 16.7015 9.38768 16.3744 9.67392 16.1115C9.96017 15.8486 10.3516 15.7143 10.8481 15.7143C11.3447 15.7143 11.7302 15.8486 12.0106 16.1115C12.291 16.3744 12.4254 16.7015 12.4254 17.0871C12.4254 17.4727 12.2852 17.7881 12.0106 18.051ZM14.9782 9.47531C14.7504 9.91344 14.4525 10.3224 14.0844 10.6962C13.7164 11.0701 13.3367 11.4557 12.9395 11.8412C12.6006 12.1625 12.3787 12.5072 12.2677 12.8752C12.1567 13.2432 12.0982 13.658 12.0807 14.137H9.46362C9.46946 13.5645 9.52204 13.0738 9.60967 12.6532C9.69729 12.2326 9.85502 11.8587 10.0653 11.5258C10.2815 11.1928 10.5736 10.854 10.9474 10.5151C11.2103 10.2464 11.4557 9.99522 11.6718 9.74987C11.8938 9.50451 12.0749 9.25332 12.2092 8.99044C12.3436 8.72756 12.4137 8.42963 12.4137 8.1025C12.4137 7.71694 12.3553 7.39565 12.2501 7.14445C12.1391 6.89326 11.9873 6.70048 11.7828 6.56612C11.5783 6.43176 11.3271 6.3675 11.0175 6.3675C10.8014 6.3675 10.5794 6.42592 10.3516 6.54275C10.1237 6.65959 9.94265 6.84068 9.79076 7.09188C9.64472 7.33723 9.56877 7.65852 9.56293 8.04408H6.66543C6.68295 7.20871 6.87573 6.5077 7.25544 5.95273C7.63516 5.39193 8.15507 4.97716 8.80935 4.7026C9.46946 4.42804 10.1997 4.28784 11.0117 4.28784C11.9113 4.28784 12.6824 4.43388 13.325 4.72013C13.9618 5.00637 14.4525 5.42698 14.7971 5.98194C15.1418 6.53691 15.3112 7.20287 15.3112 7.9915C15.3112 8.55231 15.1944 9.04886 14.9665 9.48699L14.9782 9.47531Z" fill="#1B2124"/>
</svg>
