<svg width="24" height="23" viewBox="0 0 24 23" fill="none" xmlns="http://www.w3.org/2000/svg">
<path d="M22.7848 8.8301L22.7866 8.83035C22.9701 8.85678 23.0599 9.07326 22.9539 9.22311L22.9166 9.25956L18.4825 13.5925L18.481 13.5939C17.9546 14.1105 17.7107 14.8544 17.8373 15.5859C17.8374 15.5865 17.8375 15.587 17.8376 15.5876L18.8851 21.7017C18.8851 21.7018 18.8852 21.7019 18.8852 21.7021C18.9211 21.9141 18.7026 22.0616 18.5259 21.9691C18.5257 21.969 18.5256 21.9689 18.5255 21.9688L13.0439 19.0795L13.0435 19.0793C12.3891 18.7347 11.6068 18.7366 10.9534 19.0777L10.9499 19.0795L5.46841 21.9688C5.46837 21.9688 5.46833 21.9689 5.46829 21.9689C5.29148 22.0618 5.07264 21.9142 5.1087 21.702C5.10871 21.7019 5.10873 21.7018 5.10874 21.7017L6.15625 15.5876C6.15634 15.5871 6.15643 15.5865 6.15652 15.586C6.2832 14.8545 6.03932 14.1105 5.51288 13.5939L5.5114 13.5925L1.07727 9.25959C1.07726 9.25958 1.07725 9.25957 1.07724 9.25956C0.9284 9.11405 1.01033 8.86055 1.21592 8.82999C1.21607 8.82997 1.21621 8.82995 1.21635 8.82993L7.34136 7.93687C7.34187 7.93679 7.34237 7.93672 7.34288 7.93665C8.07908 7.83074 8.71238 7.36595 9.03774 6.70353C9.03789 6.70323 9.03804 6.70294 9.03818 6.70264L11.7765 1.14076C11.7766 1.14059 11.7767 1.14042 11.7768 1.14025C11.8709 0.950602 12.1331 0.956526 12.2223 1.13838L12.2229 1.13955L14.9624 6.70388L14.9624 6.70388L14.9648 6.70863C15.291 7.3624 15.9164 7.83012 16.6572 7.93666C16.6577 7.93673 16.6582 7.9368 16.6586 7.93687L22.7848 8.8301Z" stroke="#1B2124" stroke-width="2"/>
</svg>
